<svg width="1220" height="460" version="1.0" viewBox="140 570 1220 460" xmlns="http://www.w3.org/2000/svg" zoomAndPan="magnify"><defs><clipPath id="a"><rect width="1038" height="59"/></clipPath></defs><g fill="#fffaf0"><g transform="translate(211.04 866.25)"><path d="m142.17 0-88.906-193.56v153.7c0 14.137 1.5234 22.953 4.5781 26.453 4.1875 4.75 10.805 7.125 19.859 7.125h8.1406v6.2812h-80.078v-6.2812h8.1406c9.7266 0 16.629-2.9375 20.703-8.8125 2.4883-3.625 3.7344-11.879 3.7344-24.766v-150.31c0-10.176-1.1328-17.531-3.3906-22.062-1.5859-3.2812-4.5-6.0195-8.75-8.2188-4.2422-2.207-11.055-3.3125-20.438-3.3125v-6.2812h65.141l83.469 180 82.109-180h65.141v6.2812h-7.9688c-9.8359 0-16.789 2.9453-20.859 8.8281-2.4922 3.6172-3.7344 11.871-3.7344 24.766v150.31c0 14.137 1.582 22.953 4.75 26.453 4.1875 4.75 10.801 7.125 19.844 7.125h7.9688v6.2812h-97.703v-6.2812h8.1406c9.832 0 16.727-2.9375 20.688-8.8125 2.4883-3.625 3.7344-11.879 3.7344-24.766v-153.7l-88.719 193.56z"/></g><g transform="translate(531.78 866.25)"><path d="m234.8 0h-61.422l-77.859-107.56c-5.7734 0.23047-10.465 0.34375-14.078 0.34375-1.4805 0-3.0703-0.023438-4.7656-0.078125-1.6875-0.0625-3.4375-0.14844-5.25-0.26562v66.844c0 14.48 1.582 23.477 4.75 26.984 4.3008 4.9688 10.75 7.4531 19.344 7.4531h8.9844v6.2812h-98.562v-6.2812h8.6562c9.7188 0 16.672-3.1641 20.859-9.5 2.375-3.5 3.5625-11.812 3.5625-24.938v-148.61c0-14.477-1.5859-23.469-4.75-26.969-4.4062-4.9766-10.965-7.4688-19.672-7.4688h-8.6562v-6.2812h83.812c24.426 0 42.438 1.7812 54.031 5.3438s21.43 10.125 29.516 19.688c8.082 9.5547 12.125 20.949 12.125 34.188 0 14.137-4.6094 26.406-13.828 36.812s-23.496 17.758-42.828 22.047l47.5 66c10.852 15.156 20.18 25.227 27.984 30.203 7.8008 4.9688 17.984 8.1328 30.547 9.4844zm-163.38-118.25c2.1445 0 4.0078 0.03125 5.5938 0.09375 1.582 0.054688 2.8828 0.078125 3.9062 0.078125 21.938 0 38.473-4.75 49.609-14.25 11.145-9.5 16.719-21.598 16.719-36.297 0-14.363-4.4961-26.039-13.484-35.031-8.9922-9-20.891-13.5-35.703-13.5-6.5625 0-15.445 1.0781-26.641 3.2344z"/></g><g transform="translate(775.33 866.25)"><path d="m71.422-123.33h106.88v-65.828c0-11.758-0.73438-19.504-2.2031-23.234-1.1367-2.832-3.5117-5.2656-7.125-7.2969-4.8672-2.7188-10.012-4.0781-15.438-4.0781h-8.1406v-6.2812h98.391v6.2812h-8.1406c-5.4297 0-10.574 1.3047-15.438 3.9062-3.625 1.8047-6.0898 4.543-7.3906 8.2188-1.293 3.6797-1.9375 11.172-1.9375 22.484v148.44c0 11.656 0.73438 19.352 2.2031 23.078 1.125 2.8242 3.4414 5.2578 6.9531 7.2969 4.9766 2.7109 10.18 4.0625 15.609 4.0625h8.1406v6.2812h-98.391v-6.2812h8.1406c9.3828 0 16.227-2.7695 20.531-8.3125 2.8203-3.6133 4.2344-12.32 4.2344-26.125v-70.062h-106.88v70.062c0 11.656 0.73438 19.352 2.2031 23.078 1.1328 2.8242 3.5078 5.2578 7.125 7.2969 4.8633 2.7109 10.008 4.0625 15.438 4.0625h8.3125v6.2812h-98.562v-6.2812h8.1406c9.5 0 16.398-2.7695 20.703-8.3125 2.707-3.6133 4.0625-12.32 4.0625-26.125v-148.44c0-11.758-0.73438-19.504-2.2031-23.234-1.125-2.832-3.4453-5.2656-6.9531-7.2969-4.9805-2.7188-10.184-4.0781-15.609-4.0781h-8.1406v-6.2812h98.562v6.2812h-8.3125c-5.4297 0-10.574 1.3047-15.438 3.9062-3.5 1.8047-5.9336 4.543-7.2969 8.2188-1.3555 3.6797-2.0312 11.172-2.0312 22.484z"/></g><g transform="translate(1038 866.25)"><path d="m213.25-235.3 5.9375 72.609h-5.9375c-6-18.094-13.75-31.723-23.25-40.891-13.68-13.227-31.262-19.844-52.75-19.844-29.293 0-51.574 11.594-66.844 34.781-12.781 19.562-19.172 42.859-19.172 69.891 0 21.938 4.2383 41.961 12.719 60.062 8.4883 18.094 19.602 31.355 33.344 39.781 13.738 8.418 27.848 12.625 42.328 12.625 8.4766 0 16.676-1.0703 24.594-3.2188 7.9141-2.1445 15.551-5.3125 22.906-9.5v-66.5c0-11.539-0.88281-19.094-2.6406-22.656-1.75-3.5625-4.4648-6.2734-8.1406-8.1406-3.6797-1.8633-10.152-2.7969-19.422-2.7969v-6.4375h89.062v6.4375h-4.2344c-8.8242 0-14.875 2.9453-18.156 8.8281-2.2617 4.1797-3.3906 12.434-3.3906 24.766v70.406c-13.012 7.0117-25.852 12.156-38.516 15.438-12.668 3.2812-26.746 4.9219-42.234 4.9219-44.449 0-78.211-14.25-101.28-42.75-17.305-21.383-25.953-46.039-25.953-73.969 0-20.25 4.8594-39.645 14.578-58.188 11.539-22.062 27.379-39.031 47.516-50.906 16.844-9.832 36.742-14.75 59.703-14.75 8.375 0 15.984 0.67969 22.828 2.0312 6.8438 1.3555 16.539 4.3516 29.094 8.9844 6.332 2.375 10.57 3.5625 12.719 3.5625 2.1445 0 3.9766-0.98828 5.5-2.9688 1.5312-1.9766 2.4688-5.8477 2.8125-11.609z"/></g></g><g transform="translate(233 897)"><g clip-path="url(#a)"><g fill="#fffaf0"><g transform="translate(1.2429 47.415)"><path d="m21.547 0-13.469-29.328v23.281c0 2.1484 0.22656 3.4844 0.6875 4.0156 0.63281 0.71875 1.6328 1.0781 3 1.0781h1.2344v0.95312h-12.125v-0.95312h1.2344c1.4688 0 2.5156-0.44141 3.1406-1.3281 0.375-0.55078 0.5625-1.8047 0.5625-3.7656v-22.766c0-1.5391-0.17188-2.6562-0.51562-3.3438-0.24219-0.5-0.68359-0.91406-1.3281-1.25-0.64844-0.33203-1.6797-0.5-3.0938-0.5v-0.95312h9.875l12.641 27.281 12.438-27.281h9.875v0.95312h-1.2031c-1.5 0-2.5586 0.44922-3.1719 1.3438-0.375 0.54297-0.5625 1.793-0.5625 3.75v22.766c0 2.1484 0.23828 3.4844 0.71875 4.0156 0.63281 0.71875 1.6406 1.0781 3.0156 1.0781h1.2031v0.95312h-14.812v-0.95312h1.2344c1.4883 0 2.5352-0.44141 3.1406-1.3281 0.375-0.55078 0.5625-1.8047 0.5625-3.7656v-23.281l-13.438 29.328z"/></g><g transform="translate(51.827 47.415)"><path d="m19.25-35.656c4.5195 0 8.4375 1.7188 11.75 5.1562 3.3203 3.4375 4.9844 7.7305 4.9844 12.875 0 5.293-1.6719 9.6875-5.0156 13.188-3.3438 3.4922-7.3867 5.2344-12.125 5.2344-4.8047 0-8.8398-1.7031-12.109-5.1094-3.2617-3.4141-4.8906-7.832-4.8906-13.25 0-5.5312 1.8828-10.039 5.6562-13.531 3.2812-3.0391 7.1953-4.5625 11.75-4.5625zm-0.48438 1.875c-3.125 0-5.625 1.1641-7.5 3.4844-2.3555 2.875-3.5312 7.0898-3.5312 12.641 0 5.6875 1.2188 10.062 3.6562 13.125 1.8633 2.3359 4.332 3.5 7.4062 3.5 3.2695 0 5.9688-1.2734 8.0938-3.8281 2.1328-2.5508 3.2031-6.5781 3.2031-12.078 0-5.9688-1.1719-10.414-3.5156-13.344-1.8867-2.332-4.4922-3.5-7.8125-3.5z"/></g><g transform="translate(93.624 47.415)"><path d="m24.141-35.656v12.062h-0.95312c-0.3125-2.3125-0.87109-4.1484-1.6719-5.5156-0.79297-1.375-1.9297-2.4609-3.4062-3.2656-1.4688-0.8125-2.9922-1.2188-4.5625-1.2188-1.7812 0-3.2578 0.54688-4.4219 1.6406-1.168 1.0859-1.75 2.3203-1.75 3.7031 0 1.0625 0.36719 2.0312 1.1094 2.9062 1.0625 1.2812 3.5859 2.9961 7.5781 5.1406 3.2578 1.75 5.4844 3.0938 6.6719 4.0312 1.1875 0.92969 2.1016 2.0273 2.75 3.2969 0.64453 1.2734 0.96875 2.6016 0.96875 3.9844 0 2.6367-1.0273 4.9141-3.0781 6.8281-2.043 1.9062-4.6797 2.8594-7.9062 2.8594-1.0117 0-1.9609-0.078125-2.8438-0.23438-0.53125-0.085938-1.6367-0.39844-3.3125-0.9375-1.668-0.53906-2.7266-0.8125-3.1719-0.8125-0.42969 0-0.76562 0.13281-1.0156 0.39062-0.25 0.26172-0.43359 0.79297-0.54688 1.5938h-0.95312v-11.953h0.95312c0.44531 2.5 1.0469 4.375 1.7969 5.625 0.75 1.2422 1.8984 2.2734 3.4531 3.0938 1.5508 0.82422 3.2539 1.2344 5.1094 1.2344 2.1328 0 3.8203-0.5625 5.0625-1.6875 1.25-1.1328 1.875-2.4766 1.875-4.0312 0-0.85156-0.24219-1.7188-0.71875-2.5938-0.46875-0.875-1.1992-1.6875-2.1875-2.4375-0.66797-0.50781-2.4961-1.5977-5.4844-3.2656-2.9805-1.6758-5.1016-3.0078-6.3594-4-1.25-1-2.2031-2.0977-2.8594-3.2969-0.64844-1.1953-0.96875-2.5156-0.96875-3.9531 0-2.5078 0.95703-4.6641 2.875-6.4688 1.9141-1.8125 4.3594-2.7188 7.3281-2.7188 1.8438 0 3.8008 0.46094 5.875 1.375 0.95703 0.42969 1.6328 0.64062 2.0312 0.64062 0.44531 0 0.8125-0.12891 1.0938-0.39062 0.28125-0.26953 0.50781-0.8125 0.6875-1.625z"/></g><g transform="translate(126.68 47.415)"><path d="m31.688-35.656 0.79688 11.859h-0.79688c-1.0625-3.5508-2.5781-6.1016-4.5469-7.6562-1.9688-1.5625-4.3359-2.3438-7.0938-2.3438-2.3125 0-4.4062 0.58984-6.2812 1.7656-1.8672 1.168-3.3359 3.0391-4.4062 5.6094-1.0625 2.5742-1.5938 5.7734-1.5938 9.5938 0 3.1484 0.50391 5.875 1.5156 8.1875 1.0078 2.3125 2.5312 4.0898 4.5625 5.3281 2.0312 1.2305 4.3477 1.8438 6.9531 1.8438 2.2578 0 4.2539-0.48438 5.9844-1.4531 1.7266-0.96875 3.6289-2.8906 5.7031-5.7656l0.79688 0.51562c-1.7422 3.1055-3.7773 5.375-6.1094 6.8125-2.3359 1.4375-5.1055 2.1562-8.3125 2.1562-5.7734 0-10.242-2.1406-13.406-6.4219-2.3672-3.1875-3.5469-6.9414-3.5469-11.266 0-3.4766 0.77344-6.6719 2.3281-9.5781 1.5625-2.9141 3.707-5.1758 6.4375-6.7812 2.7383-1.6016 5.7266-2.4062 8.9688-2.4062 2.5195 0 5.0039 0.62109 7.4531 1.8594 0.71875 0.375 1.2344 0.5625 1.5469 0.5625 0.45703 0 0.85938-0.16016 1.2031-0.48438 0.44531-0.46875 0.76562-1.1133 0.95312-1.9375z"/></g><g transform="translate(165.57 47.415)"><path d="m24.078-11.672h-13.484l-2.375 5.5c-0.58594 1.3555-0.875 2.3672-0.875 3.0312 0 0.53125 0.25391 1 0.76562 1.4062 0.50781 0.40625 1.6016 0.66797 3.2812 0.78125v0.95312h-10.984v-0.95312c1.457-0.25781 2.3984-0.59375 2.8281-1 0.875-0.82031 1.8438-2.4922 2.9062-5.0156l12.266-28.688h0.89062l12.141 29c0.97656 2.3359 1.8633 3.8516 2.6562 4.5469 0.80078 0.6875 1.9102 1.0742 3.3281 1.1562v0.95312h-13.75v-0.95312c1.3828-0.0625 2.3203-0.28906 2.8125-0.6875 0.48828-0.39453 0.73438-0.875 0.73438-1.4375 0-0.75781-0.34375-1.9531-1.0312-3.5781zm-0.71875-1.9062-5.9062-14.078-6.0625 14.078z"/></g><g transform="translate(201.54 47.415)"><path d="m30.453-34.859 0.39062 8.1719h-0.96875c-0.19922-1.4375-0.46094-2.4609-0.78125-3.0781-0.53125-0.98828-1.2422-1.7188-2.125-2.1875-0.875-0.47656-2.0312-0.71875-3.4688-0.71875h-4.9219v26.625c0 2.1484 0.23438 3.4844 0.70312 4.0156 0.64453 0.71875 1.6445 1.0781 3 1.0781h1.2188v0.95312h-14.781v-0.95312h1.2344c1.4688 0 2.5078-0.44141 3.125-1.3281 0.38281-0.55078 0.57812-1.8047 0.57812-3.7656v-26.625h-4.2031c-1.625 0-2.7812 0.12109-3.4688 0.35938-0.88672 0.32422-1.6484 0.94922-2.2812 1.875-0.63672 0.92969-1.0117 2.1797-1.125 3.75h-0.98438l0.40625-8.1719z"/></g><g transform="translate(237.47 47.415)"><path d="m11-32.953v13.781h7.6562c1.9883 0 3.3164-0.30078 3.9844-0.90625 0.89453-0.78125 1.3945-2.1641 1.5-4.1562h0.95312v12.125h-0.95312c-0.24219-1.6953-0.48047-2.7852-0.71875-3.2656-0.3125-0.59375-0.82422-1.0625-1.5312-1.4062-0.69922-0.34375-1.7773-0.51562-3.2344-0.51562h-7.6562v11.484c0 1.543 0.066406 2.4805 0.20312 2.8125 0.13281 0.33594 0.375 0.60156 0.71875 0.79688 0.34375 0.19922 0.99219 0.29688 1.9531 0.29688h5.9219c1.9688 0 3.3945-0.13281 4.2812-0.40625 0.89453-0.26953 1.7539-0.8125 2.5781-1.625 1.0625-1.0625 2.1484-2.6602 3.2656-4.7969h1.0312l-3.0156 8.7344h-26.859v-0.95312h1.2344c0.82031 0 1.6016-0.19531 2.3438-0.59375 0.53906-0.26953 0.91016-0.67578 1.1094-1.2188 0.19531-0.55078 0.29688-1.6758 0.29688-3.375v-22.641c0-2.2188-0.22656-3.582-0.67188-4.0938-0.61719-0.6875-1.6406-1.0312-3.0781-1.0312h-1.2344v-0.95312h26.859l0.39062 7.6406h-1c-0.36719-1.832-0.76562-3.0938-1.2031-3.7812s-1.0859-1.207-1.9375-1.5625c-0.6875-0.25781-1.8984-0.39062-3.625-0.39062z"/></g><g transform="translate(273.41 47.415)"><path d="m30.172-9.6406 0.85938 0.1875-2.9844 9.4531h-27v-0.95312h1.3125c1.4766 0 2.5352-0.47656 3.1719-1.4375 0.35156-0.55078 0.53125-1.8164 0.53125-3.7969v-22.5c0-2.1758-0.24219-3.5352-0.71875-4.0781-0.66797-0.75781-1.6641-1.1406-2.9844-1.1406h-1.3125v-0.95312h15.781v0.95312c-1.8438-0.007812-3.1406 0.16797-3.8906 0.53125-0.74219 0.35547-1.25 0.80859-1.5312 1.3594-0.27344 0.54297-0.40625 1.8516-0.40625 3.9219v21.906c0 1.418 0.13281 2.3906 0.40625 2.9219 0.20703 0.36719 0.52344 0.63672 0.95312 0.8125 0.42578 0.16797 1.7656 0.25 4.0156 0.25h2.5469c2.6641 0 4.5391-0.19531 5.625-0.59375 1.082-0.39453 2.0664-1.0938 2.9531-2.0938 0.89453-1.0078 1.7852-2.5938 2.6719-4.75z"/></g><g transform="translate(309.35 47.415)"><path d="m30.172-9.6406 0.85938 0.1875-2.9844 9.4531h-27v-0.95312h1.3125c1.4766 0 2.5352-0.47656 3.1719-1.4375 0.35156-0.55078 0.53125-1.8164 0.53125-3.7969v-22.5c0-2.1758-0.24219-3.5352-0.71875-4.0781-0.66797-0.75781-1.6641-1.1406-2.9844-1.1406h-1.3125v-0.95312h15.781v0.95312c-1.8438-0.007812-3.1406 0.16797-3.8906 0.53125-0.74219 0.35547-1.25 0.80859-1.5312 1.3594-0.27344 0.54297-0.40625 1.8516-0.40625 3.9219v21.906c0 1.418 0.13281 2.3906 0.40625 2.9219 0.20703 0.36719 0.52344 0.63672 0.95312 0.8125 0.42578 0.16797 1.7656 0.25 4.0156 0.25h2.5469c2.6641 0 4.5391-0.19531 5.625-0.59375 1.082-0.39453 2.0664-1.0938 2.9531-2.0938 0.89453-1.0078 1.7852-2.5938 2.6719-4.75z"/></g><g transform="translate(345.29 47.415)"><path d="m16.25-0.95312v0.95312h-14.938v-0.95312h1.2344c1.4375 0 2.4844-0.41406 3.1406-1.25 0.40625-0.55078 0.60938-1.875 0.60938-3.9688v-22.516c0-1.7578-0.10938-2.9258-0.32812-3.5-0.17969-0.42578-0.53125-0.78906-1.0625-1.0938-0.75-0.41406-1.5391-0.625-2.3594-0.625h-1.2344v-0.95312h14.938v0.95312h-1.2656c-1.418 0-2.4531 0.42188-3.1094 1.2656-0.42969 0.54297-0.64062 1.8594-0.64062 3.9531v22.516c0 1.7734 0.10938 2.9375 0.32812 3.5 0.17578 0.42969 0.53516 0.79688 1.0781 1.1094 0.73828 0.40625 1.5195 0.60938 2.3438 0.60938z"/></g><g transform="translate(366.6 47.415)"/><g transform="translate(383.55 47.415)"><path d="m35.578 0h-9.3125l-11.797-16.297c-0.875 0.03125-1.5859 0.046875-2.125 0.046875h-0.73438c-0.25-0.007812-0.51172-0.023438-0.78125-0.046875v10.125c0 2.1992 0.23828 3.5625 0.71875 4.0938 0.64453 0.75 1.6172 1.125 2.9219 1.125h1.3594v0.95312h-14.922v-0.95312h1.2969c1.4766 0 2.5352-0.47656 3.1719-1.4375 0.35156-0.53125 0.53125-1.7891 0.53125-3.7812v-22.516c0-2.1875-0.24219-3.5469-0.71875-4.0781-0.66797-0.75781-1.6641-1.1406-2.9844-1.1406h-1.2969v-0.95312h12.688c3.707 0 6.4375 0.27344 8.1875 0.8125 1.7578 0.54297 3.25 1.5391 4.4688 2.9844 1.2266 1.4492 1.8438 3.1719 1.8438 5.1719 0 2.1484-0.69922 4.0117-2.0938 5.5938-1.3984 1.5742-3.5586 2.6836-6.4844 3.3281l7.1875 10c1.6445 2.3047 3.0547 3.8281 4.2344 4.5781 1.1875 0.75 2.7344 1.2305 4.6406 1.4375zm-24.75-17.922c0.32031 0 0.60156 0.007813 0.84375 0.015625 0.23828 0.011719 0.4375 0.015625 0.59375 0.015625 3.3203 0 5.8281-0.71875 7.5156-2.1562s2.5312-3.2695 2.5312-5.5c0-2.1758-0.68359-3.9453-2.0469-5.3125-1.3672-1.3633-3.168-2.0469-5.4062-2.0469-1 0-2.3438 0.16797-4.0312 0.5z"/></g><g transform="translate(422.44 47.415)"><path d="m19.25-35.656c4.5195 0 8.4375 1.7188 11.75 5.1562 3.3203 3.4375 4.9844 7.7305 4.9844 12.875 0 5.293-1.6719 9.6875-5.0156 13.188-3.3438 3.4922-7.3867 5.2344-12.125 5.2344-4.8047 0-8.8398-1.7031-12.109-5.1094-3.2617-3.4141-4.8906-7.832-4.8906-13.25 0-5.5312 1.8828-10.039 5.6562-13.531 3.2812-3.0391 7.1953-4.5625 11.75-4.5625zm-0.48438 1.875c-3.125 0-5.625 1.1641-7.5 3.4844-2.3555 2.875-3.5312 7.0898-3.5312 12.641 0 5.6875 1.2188 10.062 3.6562 13.125 1.8633 2.3359 4.332 3.5 7.4062 3.5 3.2695 0 5.9688-1.2734 8.0938-3.8281 2.1328-2.5508 3.2031-6.5781 3.2031-12.078 0-5.9688-1.1719-10.414-3.5156-13.344-1.8867-2.332-4.4922-3.5-7.8125-3.5z"/></g><g transform="translate(464.24 47.415)"><path d="m30.281-34.859-22.906 32.75h14.297c2.1875 0 3.8672-0.47656 5.0469-1.4375 1.1758-0.95703 2.2188-2.8984 3.125-5.8281l0.84375 0.14062-1.6406 9.2344h-28.375v-0.95312l22.359-31.812h-11.156c-1.8555 0-3.1992 0.20312-4.0312 0.60938-0.82422 0.39844-1.4531 0.97656-1.8906 1.7344-0.4375 0.76172-0.83984 2.1875-1.2031 4.2812h-0.96875l0.71875-8.7188z"/></g><g transform="translate(500.17 47.415)"><path d="m24.078-11.672h-13.484l-2.375 5.5c-0.58594 1.3555-0.875 2.3672-0.875 3.0312 0 0.53125 0.25391 1 0.76562 1.4062 0.50781 0.40625 1.6016 0.66797 3.2812 0.78125v0.95312h-10.984v-0.95312c1.457-0.25781 2.3984-0.59375 2.8281-1 0.875-0.82031 1.8438-2.4922 2.9062-5.0156l12.266-28.688h0.89062l12.141 29c0.97656 2.3359 1.8633 3.8516 2.6562 4.5469 0.80078 0.6875 1.9102 1.0742 3.3281 1.1562v0.95312h-13.75v-0.95312c1.3828-0.0625 2.3203-0.28906 2.8125-0.6875 0.48828-0.39453 0.73438-0.875 0.73438-1.4375 0-0.75781-0.34375-1.9531-1.0312-3.5781zm-0.71875-1.9062-5.9062-14.078-6.0625 14.078z"/></g><g transform="translate(539.07 47.415)"/><g transform="translate(556.01 47.415)"><path d="m10.828-18.688h16.188v-9.9688c0-1.7812-0.10938-2.957-0.32812-3.5312-0.17969-0.42578-0.54297-0.78906-1.0938-1.0938-0.73047-0.41406-1.5078-0.625-2.3281-0.625h-1.2344v-0.95312h14.906v0.95312h-1.2344c-0.82422 0-1.6055 0.19922-2.3438 0.59375-0.54297 0.27344-0.91406 0.6875-1.1094 1.25-0.19922 0.55469-0.29688 1.6875-0.29688 3.4062v22.484c0 1.7734 0.10938 2.9375 0.32812 3.5 0.17578 0.42969 0.53125 0.79688 1.0625 1.1094 0.75 0.40625 1.5352 0.60938 2.3594 0.60938h1.2344v0.95312h-14.906v-0.95312h1.2344c1.4141 0 2.4531-0.41406 3.1094-1.25 0.42578-0.55078 0.64062-1.875 0.64062-3.9688v-10.609h-16.188v10.609c0 1.7734 0.10938 2.9375 0.32812 3.5 0.16406 0.42969 0.52344 0.79688 1.0781 1.1094 0.73828 0.40625 1.5195 0.60938 2.3438 0.60938h1.25v0.95312h-14.922v-0.95312h1.2344c1.4375 0 2.4766-0.41406 3.125-1.25 0.41406-0.55078 0.625-1.875 0.625-3.9688v-22.484c0-1.7812-0.11719-2.957-0.34375-3.5312-0.16797-0.42578-0.51562-0.78906-1.0469-1.0938-0.76172-0.41406-1.5469-0.625-2.3594-0.625h-1.2344v-0.95312h14.922v0.95312h-1.25c-0.82422 0-1.6055 0.19922-2.3438 0.59375-0.53125 0.27344-0.90234 0.6875-1.1094 1.25-0.19922 0.55469-0.29688 1.6875-0.29688 3.4062z"/></g><g transform="translate(597.81 47.415)"><path d="m19.25-35.656c4.5195 0 8.4375 1.7188 11.75 5.1562 3.3203 3.4375 4.9844 7.7305 4.9844 12.875 0 5.293-1.6719 9.6875-5.0156 13.188-3.3438 3.4922-7.3867 5.2344-12.125 5.2344-4.8047 0-8.8398-1.7031-12.109-5.1094-3.2617-3.4141-4.8906-7.832-4.8906-13.25 0-5.5312 1.8828-10.039 5.6562-13.531 3.2812-3.0391 7.1953-4.5625 11.75-4.5625zm-0.48438 1.875c-3.125 0-5.625 1.1641-7.5 3.4844-2.3555 2.875-3.5312 7.0898-3.5312 12.641 0 5.6875 1.2188 10.062 3.6562 13.125 1.8633 2.3359 4.332 3.5 7.4062 3.5 3.2695 0 5.9688-1.2734 8.0938-3.8281 2.1328-2.5508 3.2031-6.5781 3.2031-12.078 0-5.9688-1.1719-10.414-3.5156-13.344-1.8867-2.332-4.4922-3.5-7.8125-3.5z"/></g><g transform="translate(639.61 47.415)"><path d="m30.172-9.6406 0.85938 0.1875-2.9844 9.4531h-27v-0.95312h1.3125c1.4766 0 2.5352-0.47656 3.1719-1.4375 0.35156-0.55078 0.53125-1.8164 0.53125-3.7969v-22.5c0-2.1758-0.24219-3.5352-0.71875-4.0781-0.66797-0.75781-1.6641-1.1406-2.9844-1.1406h-1.3125v-0.95312h15.781v0.95312c-1.8438-0.007812-3.1406 0.16797-3.8906 0.53125-0.74219 0.35547-1.25 0.80859-1.5312 1.3594-0.27344 0.54297-0.40625 1.8516-0.40625 3.9219v21.906c0 1.418 0.13281 2.3906 0.40625 2.9219 0.20703 0.36719 0.52344 0.63672 0.95312 0.8125 0.42578 0.16797 1.7656 0.25 4.0156 0.25h2.5469c2.6641 0 4.5391-0.19531 5.625-0.59375 1.082-0.39453 2.0664-1.0938 2.9531-2.0938 0.89453-1.0078 1.7852-2.5938 2.6719-4.75z"/></g><g transform="translate(675.54 47.415)"><path d="m0.90625 0v-0.95312h1.2969c1.4766 0 2.5234-0.46875 3.1406-1.4062 0.375-0.57031 0.5625-1.8438 0.5625-3.8125v-22.516c0-2.1758-0.24219-3.5352-0.71875-4.0781-0.66797-0.75781-1.6641-1.1406-2.9844-1.1406h-1.2969v-0.95312h14.188c5.207 0 9.1641 0.59375 11.875 1.7812 2.7188 1.1797 4.9062 3.1484 6.5625 5.9062 1.6562 2.7617 2.4844 5.9492 2.4844 9.5625 0 4.8555-1.4766 8.9062-4.4219 12.156-3.3125 3.6367-8.3555 5.4531-15.125 5.4531zm9.9375-2.5156c2.1758 0.48047 4.0039 0.71875 5.4844 0.71875 3.9688 0 7.2656-1.3945 9.8906-4.1875 2.625-2.7891 3.9375-6.5781 3.9375-11.359 0-4.8203-1.3125-8.6172-3.9375-11.391-2.625-2.7812-5.9961-4.1719-10.109-4.1719-1.543 0-3.2969 0.25-5.2656 0.75z"/></g><g transform="translate(717.34 47.415)"><path d="m16.25-0.95312v0.95312h-14.938v-0.95312h1.2344c1.4375 0 2.4844-0.41406 3.1406-1.25 0.40625-0.55078 0.60938-1.875 0.60938-3.9688v-22.516c0-1.7578-0.10938-2.9258-0.32812-3.5-0.17969-0.42578-0.53125-0.78906-1.0625-1.0938-0.75-0.41406-1.5391-0.625-2.3594-0.625h-1.2344v-0.95312h14.938v0.95312h-1.2656c-1.418 0-2.4531 0.42188-3.1094 1.2656-0.42969 0.54297-0.64062 1.8594-0.64062 3.9531v22.516c0 1.7734 0.10938 2.9375 0.32812 3.5 0.17578 0.42969 0.53516 0.79688 1.0781 1.1094 0.73828 0.40625 1.5195 0.60938 2.3438 0.60938z"/></g><g transform="translate(738.65 47.415)"><path d="m-0.6875-34.859h9.4531l21.312 26.141v-20.094c0-2.1445-0.24219-3.4844-0.71875-4.0156-0.63672-0.71875-1.6406-1.0781-3.0156-1.0781h-1.2031v-0.95312h12.125v0.95312h-1.2344c-1.4688 0-2.5117 0.44922-3.125 1.3438-0.38672 0.54297-0.57812 1.793-0.57812 3.75v29.375h-0.92188l-22.969-28.062v21.453c0 2.1484 0.22656 3.4844 0.6875 4.0156 0.64453 0.71875 1.6445 1.0781 3 1.0781h1.2344v0.95312h-12.125v-0.95312h1.2031c1.4883 0 2.5469-0.44141 3.1719-1.3281 0.375-0.55078 0.5625-1.8047 0.5625-3.7656v-24.234c-1.0117-1.1758-1.7812-1.9531-2.3125-2.3281-0.52344-0.38281-1.2891-0.73828-2.2969-1.0625-0.49219-0.15625-1.2422-0.23438-2.25-0.23438z"/></g><g transform="translate(780.45 47.415)"><path d="m32.312-35.656 0.89062 11h-0.89062c-0.90625-2.7383-2.0859-4.8008-3.5312-6.1875-2.0742-2-4.7344-3-7.9844-3-4.4375 0-7.8125 1.7578-10.125 5.2656-1.9375 2.9609-2.9062 6.4844-2.9062 10.578 0 3.3359 0.64062 6.3711 1.9219 9.1094 1.2891 2.7422 2.9727 4.75 5.0469 6.0312 2.082 1.2734 4.2227 1.9062 6.4219 1.9062 1.2812 0 2.5195-0.16016 3.7188-0.48438 1.207-0.32031 2.3633-0.80078 3.4688-1.4375v-10.078c0-1.75-0.13672-2.8945-0.40625-3.4375-0.26172-0.53906-0.66797-0.95312-1.2188-1.2344-0.55469-0.28125-1.5312-0.42188-2.9375-0.42188v-0.96875h13.484v0.96875h-0.64062c-1.3359 0-2.25 0.44922-2.75 1.3438-0.34375 0.63672-0.51562 1.8867-0.51562 3.75v10.672c-1.9688 1.0625-3.9141 1.8398-5.8281 2.3281-1.918 0.5-4.0547 0.75-6.4062 0.75-6.7305 0-11.844-2.1602-15.344-6.4844-2.625-3.2266-3.9375-6.9609-3.9375-11.203 0-3.0625 0.73828-6 2.2188-8.8125 1.75-3.3438 4.1484-5.9141 7.2031-7.7188 2.5508-1.4883 5.5664-2.2344 9.0469-2.2344 1.2578 0 2.4062 0.10547 3.4375 0.3125 1.0391 0.21094 2.5156 0.66406 4.4219 1.3594 0.95703 0.36719 1.5977 0.54688 1.9219 0.54688 0.33203 0 0.61328-0.14844 0.84375-0.45312 0.22656-0.30078 0.36719-0.89062 0.42188-1.7656z"/></g><g transform="translate(822.25 47.415)"/><g transform="translate(839.19 47.415)"><path d="m32.312-35.656 0.89062 11h-0.89062c-0.90625-2.7383-2.0859-4.8008-3.5312-6.1875-2.0742-2-4.7344-3-7.9844-3-4.4375 0-7.8125 1.7578-10.125 5.2656-1.9375 2.9609-2.9062 6.4844-2.9062 10.578 0 3.3359 0.64062 6.3711 1.9219 9.1094 1.2891 2.7422 2.9727 4.75 5.0469 6.0312 2.082 1.2734 4.2227 1.9062 6.4219 1.9062 1.2812 0 2.5195-0.16016 3.7188-0.48438 1.207-0.32031 2.3633-0.80078 3.4688-1.4375v-10.078c0-1.75-0.13672-2.8945-0.40625-3.4375-0.26172-0.53906-0.66797-0.95312-1.2188-1.2344-0.55469-0.28125-1.5312-0.42188-2.9375-0.42188v-0.96875h13.484v0.96875h-0.64062c-1.3359 0-2.25 0.44922-2.75 1.3438-0.34375 0.63672-0.51562 1.8867-0.51562 3.75v10.672c-1.9688 1.0625-3.9141 1.8398-5.8281 2.3281-1.918 0.5-4.0547 0.75-6.4062 0.75-6.7305 0-11.844-2.1602-15.344-6.4844-2.625-3.2266-3.9375-6.9609-3.9375-11.203 0-3.0625 0.73828-6 2.2188-8.8125 1.75-3.3438 4.1484-5.9141 7.2031-7.7188 2.5508-1.4883 5.5664-2.2344 9.0469-2.2344 1.2578 0 2.4062 0.10547 3.4375 0.3125 1.0391 0.21094 2.5156 0.66406 4.4219 1.3594 0.95703 0.36719 1.5977 0.54688 1.9219 0.54688 0.33203 0 0.61328-0.14844 0.84375-0.45312 0.22656-0.30078 0.36719-0.89062 0.42188-1.7656z"/></g><g transform="translate(880.99 47.415)"><path d="m35.578 0h-9.3125l-11.797-16.297c-0.875 0.03125-1.5859 0.046875-2.125 0.046875h-0.73438c-0.25-0.007812-0.51172-0.023438-0.78125-0.046875v10.125c0 2.1992 0.23828 3.5625 0.71875 4.0938 0.64453 0.75 1.6172 1.125 2.9219 1.125h1.3594v0.95312h-14.922v-0.95312h1.2969c1.4766 0 2.5352-0.47656 3.1719-1.4375 0.35156-0.53125 0.53125-1.7891 0.53125-3.7812v-22.516c0-2.1875-0.24219-3.5469-0.71875-4.0781-0.66797-0.75781-1.6641-1.1406-2.9844-1.1406h-1.2969v-0.95312h12.688c3.707 0 6.4375 0.27344 8.1875 0.8125 1.7578 0.54297 3.25 1.5391 4.4688 2.9844 1.2266 1.4492 1.8438 3.1719 1.8438 5.1719 0 2.1484-0.69922 4.0117-2.0938 5.5938-1.3984 1.5742-3.5586 2.6836-6.4844 3.3281l7.1875 10c1.6445 2.3047 3.0547 3.8281 4.2344 4.5781 1.1875 0.75 2.7344 1.2305 4.6406 1.4375zm-24.75-17.922c0.32031 0 0.60156 0.007813 0.84375 0.015625 0.23828 0.011719 0.4375 0.015625 0.59375 0.015625 3.3203 0 5.8281-0.71875 7.5156-2.1562s2.5312-3.2695 2.5312-5.5c0-2.1758-0.68359-3.9453-2.0469-5.3125-1.3672-1.3633-3.168-2.0469-5.4062-2.0469-1 0-2.3438 0.16797-4.0312 0.5z"/></g><g transform="translate(919.88 47.415)"><path d="m19.25-35.656c4.5195 0 8.4375 1.7188 11.75 5.1562 3.3203 3.4375 4.9844 7.7305 4.9844 12.875 0 5.293-1.6719 9.6875-5.0156 13.188-3.3438 3.4922-7.3867 5.2344-12.125 5.2344-4.8047 0-8.8398-1.7031-12.109-5.1094-3.2617-3.4141-4.8906-7.832-4.8906-13.25 0-5.5312 1.8828-10.039 5.6562-13.531 3.2812-3.0391 7.1953-4.5625 11.75-4.5625zm-0.48438 1.875c-3.125 0-5.625 1.1641-7.5 3.4844-2.3555 2.875-3.5312 7.0898-3.5312 12.641 0 5.6875 1.2188 10.062 3.6562 13.125 1.8633 2.3359 4.332 3.5 7.4062 3.5 3.2695 0 5.9688-1.2734 8.0938-3.8281 2.1328-2.5508 3.2031-6.5781 3.2031-12.078 0-5.9688-1.1719-10.414-3.5156-13.344-1.8867-2.332-4.4922-3.5-7.8125-3.5z"/></g><g transform="translate(961.68 47.415)"><path d="m25.109-33.906v-0.95312h12.344v0.95312h-1.3125c-1.375 0-2.4297 0.57422-3.1562 1.7188-0.36719 0.53125-0.54688 1.7656-0.54688 3.7031v14.141c0 3.5-0.35156 6.2148-1.0469 8.1406-0.6875 1.9297-2.0469 3.5859-4.0781 4.9688-2.0312 1.375-4.7969 2.0625-8.2969 2.0625-3.8047 0-6.6875-0.66406-8.6562-1.9844s-3.3672-3.0977-4.1875-5.3281c-0.55469-1.5195-0.82812-4.3789-0.82812-8.5781v-13.625c0-2.1328-0.29688-3.5352-0.89062-4.2031-0.58594-0.67578-1.5391-1.0156-2.8594-1.0156h-1.3125v-0.95312h15.062v0.95312h-1.3281c-1.4492 0-2.4805 0.45312-3.0938 1.3594-0.42969 0.625-0.64062 1.9141-0.64062 3.8594v15.188c0 1.3555 0.125 2.9062 0.375 4.6562s0.69531 3.1172 1.3438 4.0938c0.65625 0.96875 1.5938 1.7734 2.8125 2.4062 1.2266 0.63672 2.7344 0.95312 4.5156 0.95312 2.2812 0 4.3164-0.49219 6.1094-1.4844 1.8008-1 3.0312-2.2695 3.6875-3.8125 0.66406-1.5508 1-4.1797 1-7.8906v-14.109c0-2.1758-0.24219-3.5352-0.71875-4.0781-0.66797-0.75781-1.6641-1.1406-2.9844-1.1406z"/></g><g transform="translate(1003.5 47.415)"><path d="m10.797-16.328v10.156c0 2.1992 0.23828 3.5625 0.71875 4.0938 0.64453 0.75 1.6289 1.125 2.9531 1.125h1.3438v0.95312h-14.938v-0.95312h1.3125c1.4688 0 2.5195-0.47656 3.1562-1.4375 0.34375-0.53125 0.51562-1.7891 0.51562-3.7812v-22.516c0-2.1875-0.23047-3.5469-0.6875-4.0781-0.67969-0.75781-1.6719-1.1406-2.9844-1.1406h-1.3125v-0.95312h12.781c3.1133 0 5.5664 0.32422 7.3594 0.96875 1.8008 0.64844 3.3164 1.7344 4.5469 3.2656 1.2383 1.5234 1.8594 3.3242 1.8594 5.4062 0 2.8438-0.9375 5.1562-2.8125 6.9375s-4.5273 2.6719-7.9531 2.6719c-0.84375 0-1.7578-0.054687-2.7344-0.17188-0.96875-0.125-2.0117-0.30469-3.125-0.54688zm0-1.4531c0.90625 0.16797 1.707 0.29688 2.4062 0.39062 0.70703 0.085937 1.3125 0.125 1.8125 0.125 1.7812 0 3.3164-0.6875 4.6094-2.0625 1.2891-1.3828 1.9375-3.1758 1.9375-5.375 0-1.5078-0.30859-2.9102-0.92188-4.2031-0.61719-1.2891-1.4922-2.2539-2.625-2.8906-1.125-0.64453-2.4141-0.96875-3.8594-0.96875-0.86719 0-1.9844 0.16406-3.3594 0.48438z"/></g></g></g></g></svg>
